<svg width="24" height="22" viewBox="0 0 24 22" fill="none" xmlns="http://www.w3.org/2000/svg">
<path d="M11 0C9.707 0 8.605 0.844 8.187 2H0V4H8.188C8.605 5.156 9.707 6 11 6C12.293 6 13.395 5.156 13.813 4H24V2H13.812C13.395 0.844 12.294 0 11 0ZM11 2C11.563 2 12 2.438 12 3C12 3.563 11.562 4 11 4C10.437 4 10 3.562 10 3C10 2.437 10.438 2 11 2ZM18 8C16.707 8 15.605 8.844 15.187 10H0V12H15.188C15.605 13.156 16.707 14 18 14C19.293 14 20.395 13.156 20.813 12H24V10H20.812C20.395 8.844 19.293 8 18 8ZM18 10C18.563 10 19 10.438 19 11C19 11.563 18.562 12 18 12C17.437 12 17 11.562 17 11C17 10.437 17.438 10 18 10ZM7 16C5.707 16 4.605 16.844 4.187 18H0V20H4.188C4.605 21.156 5.707 22 7 22C8.293 22 9.395 21.156 9.813 20H24V18H9.812C9.395 16.844 8.293 16 7 16ZM7 18C7.563 18 8 18.438 8 19C8 19.563 7.562 20 7 20C6.437 20 6 19.562 6 19C6 18.437 6.438 18 7 18Z" fill="#ED1164"/>
</svg>
