<svg width="26" height="26" viewBox="0 0 26 26" fill="none" xmlns="http://www.w3.org/2000/svg">
<path d="M20.5833 11.9167H5.41667C4.22005 11.9167 3.25 12.8868 3.25 14.0834V21.6667C3.25 22.8634 4.22005 23.8334 5.41667 23.8334H20.5833C21.78 23.8334 22.75 22.8634 22.75 21.6667V14.0834C22.75 12.8868 21.78 11.9167 20.5833 11.9167Z" stroke="#ED1164" stroke-width="1.5" stroke-linecap="round" stroke-linejoin="round"/>
<path d="M7.58325 11.9167V7.58341C7.58325 6.14683 8.15393 4.76907 9.16976 3.75325C10.1856 2.73743 11.5633 2.16675 12.9999 2.16675C14.4365 2.16675 15.8143 2.73743 16.8301 3.75325C17.8459 4.76907 18.4166 6.14683 18.4166 7.58341V11.9167" stroke="#ED1164" stroke-width="1.5" stroke-linecap="round" stroke-linejoin="round"/>
</svg>
