<svg width="520" height="140" viewBox="0 0 520 140" fill="none" xmlns="http://www.w3.org/2000/svg">
<path d="M147.857 1.09058H158.217V139.951H147.857V1.09058ZM38.532 67.5219H88.878V77.064H38.532V67.5219ZM0 1.09058V139.951H10.2691V10.6327H117.232V1.09058H0Z" fill="#ED1164"/>
<path d="M468.382 0.545166H386.229V139.406H396.589V87.6056H396.68V78.0635H396.589V10.0873H467.655C492.647 10.0873 509.732 21.6287 509.732 43.621V43.9845C509.732 64.6137 492.283 78.0635 466.474 78.0635H433.94V87.6056H465.838C494.828 87.6056 520.001 72.52 520.001 43.3484V42.9849C520.001 16.1761 498.917 0.545166 468.382 0.545166Z" fill="#ED1164"/>
<path d="M326.159 78.1545L277.994 0H268.089L182.301 139.86H193.024L272.905 11.3597L314.527 78.1545H326.159ZM342.063 103.782H330.521L352.968 139.86H364.237L342.063 103.782Z" fill="#ED1164"/>
</svg>
